<?xml version="1.0" encoding="utf-8"?>
<!-- Generator: Adobe Illustrator 23.1.0, SVG Export Plug-In . SVG Version: 6.00 Build 0)  -->
<svg version="1.1" id="Layer_1" xmlns="http://www.w3.org/2000/svg" xmlns:xlink="http://www.w3.org/1999/xlink" x="0px" y="0px"
	 viewBox="0 0 216 216" style="enable-background:new 0 0 216 216;" xml:space="preserve">
<style type="text/css">
	.st0{fill:#FFFFFF;}
</style>
<g>
	<path class="st0" d="M108.07,200.59c4.26,0,8.52,0,12.78,0c3.09,0,4.34-0.99,5.03-4.01c1.57-6.91,2.37-13.94,3.23-20.96
		c0.08-0.65,0.34-0.89,0.91-1.12c3.11-1.25,6.21-2.53,9.28-3.87c0.66-0.29,1.07-0.33,1.66,0.14c5.15,4.08,10.33,8.12,15.5,12.16
		c2.15,1.68,3.81,1.76,6.09,0.33c0.61-0.38,1.21-0.79,1.76-1.25c7.01-5.87,13.41-12.35,19.1-19.51c1.15-1.44,1.21-3.04,0.31-4.62
		c-0.4-0.7-0.94-1.31-1.44-1.95c-3.87-5-7.76-9.99-11.61-15.01c-0.2-0.26-0.3-0.79-0.18-1.08c1.36-3.29,2.79-6.55,4.16-9.84
		c0.2-0.48,0.44-0.7,0.95-0.76c1.22-0.15,2.43-0.35,3.65-0.53c5.81-0.88,11.61-1.77,17.42-2.62c2.21-0.33,3.89-2.07,3.9-4.35
		c0.03-9,0.03-18,0-27c-0.01-2.18-1.46-3.8-3.59-4.2c-0.56-0.11-1.12-0.18-1.69-0.26c-6.52-1-13.03-2.01-19.55-2.99
		c-0.5-0.08-0.74-0.25-0.94-0.75c-1.43-3.52-2.9-7.02-4.41-10.51c-0.22-0.51-0.21-0.85,0.13-1.28c2.04-2.63,4.07-5.27,6.1-7.91
		c2.01-2.62,4.04-5.22,6.02-7.85c1.47-1.97,1.44-3.88-0.02-5.87c-0.44-0.6-0.9-1.2-1.38-1.77c-4.11-4.95-8.75-9.39-13.38-13.83
		c-1.54-1.47-3.12-2.9-4.66-4.37c-1.89-1.81-4.51-1.65-6.28-0.27c-5.38,4.21-10.89,8.26-16.34,12.39c-0.43,0.32-0.75,0.37-1.28,0.15
		c-3.17-1.34-6.35-2.64-9.55-3.92c-0.49-0.19-0.7-0.44-0.77-0.94c-1.07-7.14-2.17-14.28-3.24-21.42c-0.29-1.9-1.51-3.23-3.4-3.55
		c-0.53-0.09-1.07-0.12-1.61-0.12c-8.46-0.01-16.92-0.01-25.38,0c-0.48,0-0.96,0.02-1.44,0.07c-1.81,0.18-2.99,1.19-3.48,2.91
		c-0.36,1.27-0.69,2.55-0.88,3.85c-0.92,6.07-1.8,12.15-2.65,18.24c-0.08,0.57-0.31,0.78-0.8,0.98c-3.24,1.32-6.47,2.67-9.69,4.06
		c-0.46,0.2-0.72,0.18-1.1-0.12c-3.12-2.44-6.25-4.86-9.38-7.28c-2.32-1.8-4.64-3.61-6.98-5.38c-1.62-1.22-3.34-1.4-5.09-0.22
		c-0.92,0.62-1.9,1.18-2.7,1.93c-3.69,3.43-7.41,6.84-10.94,10.42c-2.54,2.58-4.9,5.35-7.19,8.16c-1.88,2.32-1.7,3.87,0.13,6.21
		c4.09,5.21,8.14,10.46,12.21,15.68c0.37,0.47,0.34,0.82,0.1,1.35c-1.3,2.86-2.64,5.71-3.74,8.65c-0.48,1.27-0.98,1.86-2.4,2.05
		c-6.24,0.83-12.45,1.81-18.68,2.76c-0.97,0.15-2.02,0.24-2.86,0.68c-1.68,0.88-2.37,2.46-2.37,4.34c0,4.68,0,9.36,0,14.04
		c0,4.02-0.01,8.04,0,12.06c0.01,2.54,1.39,4.3,3.63,4.64c2.55,0.39,5.1,0.74,7.65,1.11c4.54,0.67,9.07,1.33,13.6,2.04
		c0.3,0.05,0.72,0.35,0.81,0.62c1.18,3.76,2.69,7.37,4.51,10.86c0.14,0.26,0.09,0.77-0.08,1.01c-0.84,1.21-1.73,2.37-2.63,3.54
		c-3.15,4.09-6.33,8.14-9.45,12.26c-1.64,2.16-1.59,4.12,0.05,6.25c0.93,1.21,1.9,2.4,2.92,3.54c5.15,5.76,10.83,10.97,16.52,16.17
		c1.99,1.82,4.09,1.87,6.24,0.23c5.46-4.16,10.93-8.31,16.42-12.45c0.22-0.17,0.67-0.21,0.93-0.11c3.28,1.31,6.54,2.66,9.79,4.03
		c0.29,0.12,0.6,0.5,0.65,0.8c1.1,7.02,2.17,14.04,3.23,21.06c0.43,2.84,1.89,4.11,4.8,4.11
		C99.37,200.59,103.72,200.59,108.07,200.59z"/>
	<path class="st0" d="M108.08,214.31c-4.99,0-9.99,0-14.98,0c-3.34,0-5.02-1.46-5.51-4.72c-1.22-8.06-2.45-16.12-3.71-24.18
		c-0.05-0.34-0.42-0.78-0.74-0.92c-3.73-1.58-7.48-3.12-11.24-4.63c-0.3-0.12-0.82-0.06-1.07,0.13c-6.3,4.74-12.58,9.51-18.85,14.29
		c-2.48,1.89-4.88,1.82-7.17-0.26c-6.53-5.97-13.06-11.96-18.97-18.57c-1.17-1.31-2.28-2.67-3.36-4.06
		c-1.88-2.45-1.94-4.7-0.06-7.18c3.57-4.72,7.23-9.38,10.85-14.07c1.03-1.34,2.06-2.67,3.02-4.06c0.2-0.28,0.25-0.86,0.09-1.16
		c-2.08-4.01-3.82-8.16-5.17-12.47c-0.1-0.31-0.58-0.66-0.93-0.72c-5.2-0.81-10.41-1.57-15.62-2.34c-2.93-0.43-5.86-0.83-8.78-1.28
		c-2.57-0.39-4.16-2.42-4.17-5.33c-0.02-4.62,0-9.23,0-13.85c0-5.37,0-10.75,0-16.12c0-2.16,0.78-3.97,2.72-4.99
		c0.97-0.51,2.17-0.61,3.28-0.78c7.14-1.09,14.28-2.22,21.44-3.17c1.63-0.22,2.21-0.89,2.76-2.35c1.26-3.37,2.8-6.65,4.29-9.93
		c0.28-0.62,0.31-1.01-0.11-1.55c-4.68-6-9.33-12.02-14.02-18.01c-2.11-2.68-2.32-4.46-0.15-7.13c2.62-3.23,5.33-6.41,8.25-9.37
		c4.06-4.11,8.33-8.02,12.56-11.96c0.92-0.86,2.05-1.5,3.1-2.22c2-1.36,3.98-1.16,5.84,0.25c2.7,2.03,5.35,4.11,8.02,6.18
		c3.59,2.78,7.19,5.56,10.77,8.36c0.44,0.34,0.73,0.37,1.26,0.14c3.69-1.6,7.4-3.14,11.12-4.66c0.57-0.23,0.83-0.47,0.92-1.12
		c0.98-6.98,1.99-13.96,3.05-20.94c0.23-1.49,0.6-2.97,1.01-4.42c0.57-1.99,1.91-3.13,3.99-3.35c0.55-0.06,1.1-0.08,1.65-0.08
		c9.71,0,19.43-0.01,29.14,0c0.62,0,1.24,0.03,1.85,0.14c2.17,0.37,3.58,1.89,3.91,4.08c1.23,8.2,2.49,16.4,3.73,24.6
		c0.09,0.57,0.33,0.86,0.89,1.08c3.67,1.46,7.33,2.96,10.96,4.5c0.6,0.26,0.98,0.2,1.47-0.17c6.26-4.74,12.58-9.39,18.77-14.23
		c2.03-1.59,5.03-1.76,7.21,0.31c1.77,1.69,3.59,3.32,5.35,5.02c5.32,5.1,10.65,10.2,15.37,15.88c0.55,0.66,1.08,1.34,1.59,2.04
		c1.67,2.28,1.71,4.48,0.02,6.74c-2.27,3.03-4.6,6.02-6.91,9.02c-2.33,3.03-4.65,6.06-7,9.08c-0.39,0.5-0.4,0.88-0.15,1.47
		c1.73,4.01,3.42,8.03,5.06,12.07c0.23,0.57,0.5,0.78,1.08,0.86c7.48,1.13,14.97,2.29,22.45,3.44c0.65,0.1,1.3,0.18,1.94,0.3
		c2.44,0.46,4.12,2.32,4.12,4.82c0.03,10.33,0.04,20.67,0,31c-0.01,2.62-1.94,4.62-4.48,4.99c-6.67,0.98-13.34,2.01-20.01,3.01
		c-1.39,0.21-2.79,0.44-4.19,0.61c-0.58,0.07-0.86,0.33-1.09,0.88c-1.58,3.77-3.22,7.52-4.78,11.3c-0.14,0.34-0.03,0.94,0.2,1.24
		c4.42,5.76,8.88,11.49,13.33,17.24c0.57,0.73,1.19,1.44,1.65,2.24c1.03,1.82,0.96,3.65-0.35,5.31
		c-6.53,8.23-13.88,15.67-21.93,22.41c-0.63,0.53-1.32,0.99-2.02,1.43c-2.63,1.65-4.53,1.55-7-0.38
		c-5.94-4.64-11.89-9.28-17.8-13.96c-0.68-0.54-1.15-0.49-1.91-0.16c-3.52,1.54-7.08,3-10.65,4.44c-0.65,0.26-0.95,0.54-1.04,1.28
		c-0.98,8.06-1.91,16.13-3.71,24.07c-0.79,3.46-2.23,4.6-5.77,4.6C117.86,214.31,112.97,214.31,108.08,214.31z M107.94,143.43
		c19.23,0.39,35.53-16.07,35.56-35.37c0.03-19.15-16-35.48-35.34-35.56c-19.35-0.08-35.64,16.06-35.66,35.44
		C72.48,127.6,88.99,143.77,107.94,143.43z"/>
	<path class="st0" d="M107.95,138.86c-16.5,0.3-30.89-13.78-30.87-30.9c0.02-16.88,14.21-30.94,31.06-30.87
		c16.85,0.07,30.81,14.29,30.78,30.97C138.9,124.86,124.7,139.2,107.95,138.86z"/>
</g>
</svg>
